# AST/ASF file generated using VICON BodyLanguage
# -----------------------------------------------
:version 1.10
:name VICON
:units
  mass 1.0
  length 0.45
  angle deg
:documentation
   .ast/.asf automatically generated from VICON data using
   VICON BodyBuilder and BodyLanguage model FoxedUp or BRILLIANT.MOD
:root
   order TX TY TZ RX RY RZ
   axis XYZ
   position 0 0 0  
   orientation 0 0 0 
:bonedata
  begin
     id 1 
     name lhipjoint
     direction 0.602128 -0.715006 0.355257 
     length 2.21237 
     axis 0 0 0  XYZ
  end
  begin
     id 2 
     name lfemur
     direction 0.34202 -0.939693 0  
     length 6.71649  
     axis 0 0 20  XYZ
    dof rx ry rz
    limits (-160.0 20.0)
           (-70.0 70.0)
           (-60.0 70.0)
  end
  begin
     id 3 
     name ltibia
     direction 0.34202 -0.939693 0   
     length 6.97123   
     axis 0 0 20   XYZ
    dof rx
    limits (-10.0 170.0)
  end
  begin
     id 4 
     name lfoot
     direction 0.0655697 -0.180151 0.981451   
     length 1.80924   
     axis -90 7.62852e-016 20   XYZ
    dof rx rz
    limits (-45.0 90.0)
           (-70.0 20.0)
  end
  begin
     id 5 
     name ltoes
     direction 1.53545e-011 -4.21827e-011 1   
     length 0.916331   
     axis -90 7.62852e-016 20   XYZ
    dof rx
    limits (-90.0 20.0)
  end
  begin
     id 6 
     name rhipjoint
     direction -0.625414 -0.698792 0.347201   
     length 2.2637  
     axis 0 0 0  XYZ 
  end
  begin
     id 7 
     name rfemur
     direction -0.34202 -0.939693 0   
     length 7.07595   
     axis 0 0 -20   XYZ
    dof rx ry rz
    limits (-160.0 20.0)
           (-70.0 70.0)
           (-70.0 60.0)
  end
  begin
     id 8 
     name rtibia
     direction -0.34202 -0.939693 0   
     length 7.22924   
     axis 0 0 -20   XYZ
    dof rx
    limits (-10.0 170.0)
 end
 begin
     id 9 
     name rfoot
     direction -0.0766747 -0.210662 0.974547   
     length 1.98482  
     axis -90 -7.62852e-016 -20   XYZ
    dof rx rz
    limits (-45.0 90.0)
           (-20.0 70.0)
  end
  begin
     id 10 
     name rtoes
     direction -1.53532e-011 -4.21867e-011 1   
     length 0.999842   
     axis -90 -7.62852e-016 -20   XYZ
    dof rx
    limits (-90.0 20.0)
  end
  begin
     id 11 
     name lowerback
     direction -0.0224668 0.997354 -0.0691422   
     length 2.09945   
     axis 0 0 0   XYZ
    dof rx ry rz
    limits (-20.0 45.0)
           (-30.0 30.0)
           (-30.0 30.0)
  end
  begin
     id 12 
     name upperback
     direction 0.0134698 0.998451 -0.0539888   
     length 2.09758   
     axis 0 0 0   XYZ
    dof rx ry rz
    limits (-20.0 45.0)
           (-30.0 30.0)
           (-30.0 30.0)
  end
  begin
     id 13 
     name thorax
     direction 0.0241905 0.99948 -0.0213333   
     length 2.10428   
     axis 0 0 0   XYZ
    dof rx ry rz
    limits (-20.0 45.0)
           (-30.0 30.0)
           (-30.0 30.0)
  end
  begin
     id 14 
     name lowerneck
     direction -0.00866847 0.995978 0.0891737   
     length 1.3959   
     axis 0 0 0   XYZ
    dof rx ry rz
    limits (-20.0 45.0)
           (-30.0 30.0)
           (-30.0 30.0)
  end
  begin
     id 15 
     name upperneck
     direction 0.0680679 0.992203 0.104404   
     length 1.39452   
     axis 0 0 0   XYZ
    dof rx ry rz
    limits (-20.0 45.0)
           (-30.0 30.0)
           (-30.0 30.0)
  end
  begin
     id 16
     name head
     direction 0.0242216 0.999358 0.0264054  
     length 1.40433  
     axis 0 0 0   XYZ
    dof rx ry rz
    limits (-20.0 45.0)
           (-30.0 30.0)
           (-30.0 30.0)
  end
  begin
     id 17 
     name lclavicle
     direction 0.929368 0.362991 -0.0671771  
     length 3.04887  
     axis 0 0 0   XYZ
    dof ry rz
    limits (-20.0 10.0)
           (0.0 20.0)
  end
  begin
     id 18 
     name lhumerus
     direction 1 -4.48967e-011 -7.13741e-028   
     length 4.77195   
     axis -180 -30 -90   XYZ
    dof rx ry rz
    limits (-60.0 90.0)
           (-90.0 90.0)
           (-90.0 90.0)
  end
  begin
     id 19
     name lradius
     direction 1 -4.48977e-011 3.60404e-027   
     length 2.98444   
     axis -180 -30 -90   XYZ
    dof rx
    limits (-10.0 170.0)
  end
  begin
     id 20
     name lwrist
     direction 1 -4.48997e-011 7.54877e-027   
     length 1.49222   
     axis -7.18178e-015 90 90   XYZ
    dof ry
    limits (-180.0 0.0)
 end
  begin
     id 21 
     name lhand
     direction 1 -4.489e-011 1.51105e-026   
     length 0.992285   
     axis -9.63605e-015 90 90   XYZ
    dof rx rz
    limits (-90.0 90.0)
           (-45.0 45.0)
  end
  begin
     id 22 
     name lfingers
     direction 1 -4.48998e-011 3.01948e-026   
     length 0.800006   
     axis -1.92718e-014 90 90   XYZ
    dof rx
    limits (0.0 90.0)
  end
  begin
     id 23
     name lthumb
     direction 0.707107 -6.34881e-011 0.707107   
     length 1.14865   
     axis -90 45 -3.53137e-014   XYZ
    dof rx rz
    limits (-45.0 45.0)
           (-45.0 45.0)
  end
  begin
     id 24 
     name rclavicle
     direction -0.945672 0.324529 0.0196374   
     length 3.4236  
     axis 0 0 0   XYZ 
    dof ry rz
    limits (-10.0 20.0)
           (-20.0 0.0)
  end
  begin
     id 25 
     name rhumerus
     direction -1 -4.4896e-011 1.02757e-029  
     length 4.62052   
     axis -180 30 90   XYZ
    dof rx ry rz
    limits (-90.0 60.0)
           (-90.0 90.0)
           (-90.0 90.0)
  end
  begin
     id 26 
     name rradius
     direction -1 -4.48982e-011 3.85962e-027   
     length 2.95332   
     axis -180 30 90   XYZ
    dof rx
    limits (-10.0 170.0)
  end
  begin
     id 27 
     name rwrist
     direction -1 -4.48961e-011 7.55118e-027   
     length 1.47666   
     axis -7.18178e-015 -90 -90   XYZ
    dof ry
    limits (-180.0 0.0)
  end
  begin
     id 28
     name rhand
     direction -1 -4.48984e-011 1.50994e-026   
     length 0.990956   
     axis -9.63605e-015 -90 -90   XYZ
    dof rx rz
    limits (-90.0 90.0)
           (-45.0 45.0)
  end
  begin
     id 29
     name rfingers
     direction -1 -4.4892e-011 3.02158e-026   
     length 0.798934   
     axis -1.92718e-014 -90 -90   XYZ
    dof rx
    limits (0.0 90.0)
  end
  begin
     id 30
     name rthumb
     direction -0.707107 -6.34916e-011 0.707107   
     length 1.14711   
     axis -90 -45 3.53137e-014   XYZ
    dof rx rz
    limits (-45.0 45.0)
           (-45.0 45.0)
  end
:hierarchy
  begin
    root lhipjoint rhipjoint lowerback
    lhipjoint lfemur
    lfemur ltibia
    ltibia lfoot
    lfoot ltoes
    rhipjoint rfemur
    rfemur rtibia
    rtibia rfoot
    rfoot rtoes
    lowerback upperback
    upperback thorax
    thorax lowerneck lclavicle rclavicle
    lowerneck upperneck
    upperneck head
    lclavicle lhumerus
    lhumerus lradius
    lradius lwrist
    lwrist lhand lthumb
    lhand lfingers
    rclavicle rhumerus
    rhumerus rradius
    rradius rwrist
    rwrist rhand rthumb
    rhand rfingers
  end

#!OML:ASF H:\ManfredObstacles\Project 1\Capture day 1\Session 1\Male.ASF
:FULLY-SPECIFIED
:DEGREES
190
root 1.11056 16.4492 13.2378 -170.443 -4.70105 -177.503
lowerback -8.02703 -0.783647 -0.243406
upperback 2.01367 -1.14274 1.56222
thorax 6.65616 -0.614598 1.61611
lowerneck -0.532884 -1.49847 -5.79199
upperneck -3.92475 -1.93022 7.59902
head -1.01909 -1.03132 3.49862
rclavicle -1.27346e-014 1.16786e-014
rhumerus -31.6465 -17.7387 -77.2337
rradius 30.0915
rwrist 27.1572
rhand -1.99048 -10.0739
rfingers 7.12502
rthumb 23.6825 -38.635
lclavicle -1.27346e-014 1.16786e-014
lhumerus -29.0627 11.0116 82.8092
lradius 23.1406
lwrist -25.3004
lhand -9.19807 7.52563
lfingers 7.12502
lthumb 16.7558 36.8226
rfemur -18.0243 -10.5162 28.2702
rtibia 26.0273
rfoot -18.6204 17.6673
rtoes 25.3003
lfemur -36.8026 -2.9708 -15.4364
ltibia 48.7563
lfoot -8.00841 6.77892
ltoes -10.0019
191
root 1.11094 16.4401 13.0675 -170.179 -4.35533 -177.571
lowerback -8.07202 -0.562688 -0.0794287
upperback 1.86501 -0.846085 1.36903
thorax 6.50893 -0.454983 1.36179
lowerneck -0.398271 -1.51097 -5.89566
upperneck -3.99464 -1.9479 7.70069
head -1.0629 -1.04283 3.55721
rclavicle 1.88022e-014 -6.21202e-015
rhumerus -31.3327 -17.2807 -77.8083
rradius 30.2167
rwrist 27.0288
rhand -2.13229 -9.67674
rfingers 7.12502
rthumb 23.5465 -38.2554
lclavicle 1.88022e-014 -6.21202e-015
lhumerus -29.1672 10.4388 82.9227
lradius 23.3158
lwrist -25.0703
lhand -9.25567 7.66094
lfingers 7.12502
lthumb 16.7003 36.9626
rfemur -17.5264 -10.1312 28.1305
rtibia 25.8707
rfoot -18.8236 17.6947
rtoes 26.5853
lfemur -36.9877 -3.04229 -15.3746
ltibia 43.9807
lfoot -8.10282 6.62099
ltoes -8.46594
192
root 1.10952 16.4374 12.8954 -169.888 -3.95605 -177.678
lowerback -8.14831 -0.427085 -0.112129
upperback 1.73956 -0.651865 1.27158
thorax 6.41383 -0.356894 1.30424
lowerneck -0.241161 -1.43676 -5.91403
upperneck -4.23869 -1.84936 7.59175
head -1.17777 -0.996515 3.52859
rclavicle -4.07509e-015 -1.28744e-014
rhumerus -30.9681 -16.5687 -78.3489
rradius 30.4816
rwrist 26.9986
rhand -2.05447 -9.47885
rfingers 7.12502
rthumb 23.6211 -38.0479
lclavicle -4.07509e-015 -1.28744e-014
lhumerus -29.2682 10.4881 82.9632
lradius 23.3135
lwrist -25.152
lhand -9.46222 7.61049
lfingers 7.12502
lthumb 16.5015 36.9288
rfemur -16.9642 -9.6418 27.9308
rtibia 25.5396
rfoot -19.0325 17.5222
rtoes 27.4183
lfemur -36.949 -3.02868 -15.3492
ltibia 38.8654
lfoot -7.68587 6.04981
ltoes -8.95872
193
root 1.10374 16.4404 12.7168 -169.649 -3.57632 -177.654
lowerback -8.26377 -0.364904 -0.0466113
upperback 1.62831 -0.573045 1.23925
thorax 6.35917 -0.314378 1.24369
lowerneck -0.216536 -1.2933 -5.83956
upperneck -4.30985 -1.65905 7.35087
head -1.22087 -0.898714 3.4311
rclavicle -3.65577e-015 -3.15571e-015
rhumerus -30.7873 -15.4787 -78.9754
rradius 31.1649
rwrist 26.7045
rhand -1.93543 -9.54135
rfingers 7.12502
rthumb 23.7353 -38.0956
lclavicle -3.65577e-015 -3.15571e-015
lhumerus -29.4761 10.8839 82.8766
lradius 23.2481
lwrist -25.388
lhand -9.42282 7.63146
lfingers 7.12502
lthumb 16.5394 36.9466
rfemur -16.2361 -9.40765 27.857
rtibia 25.0302
rfoot -19.2777 17.6965
rtoes 27.8743
lfemur -36.6781 -2.87697 -15.2603
ltibia 33.6173
lfoot -6.47128 4.95414
ltoes -9.12907
194
root 1.09479 16.4469 12.5289 -169.523 -3.23537 -177.957
lowerback -8.48605 -0.320852 -0.203064
upperback 1.60761 -0.480281 1.02613
thorax 6.46127 -0.268475 1.12099
lowerneck -0.174292 -1.1844 -5.73533
upperneck -4.27848 -1.51608 7.2322
head -1.22952 -0.826569 3.36936
rclavicle -4.73977e-015 9.51682e-015
rhumerus -30.7741 -14.7323 -79.5836
rradius 32.0765
rwrist 26.3978
rhand -1.87999 -9.48167
rfingers 7.12502
rthumb 23.7885 -38.029
lclavicle -4.73977e-015 9.51682e-015
lhumerus -29.5983 11.3267 82.6352
lradius 23.0561
lwrist -25.8071
lhand -9.17882 7.71106
lfingers 7.12502
lthumb 16.7743 37.0064
rfemur -15.2375 -9.39827 27.391
rtibia 24.3209
rfoot -19.2396 18.0833
rtoes 28.855
lfemur -36.1335 -2.65538 -15.6585
ltibia 28.491
lfoot -4.54968 3.29732
ltoes -6.67726
